# xmcd CD database file
#
# Track frame offsets:
#	150
#	19845
#	42395
#	67037
#	90345
#	112517
#	137547
#	154770
#	174412
#	200440
#	219342
#	238167
#	256252
#
# Disc length: 3769 seconds
#
# Revision: 0
# Processed by: cddbd v1.5.1PL0 Copyright (c) Steve Scherf et al.
# Submitted via: CD2WAV32(EN) R3.19
#
DISCID=a50eb70d
DTITLE=L'Arc-en-Ciel - Clicked Singles Best 13
DYEAR=1900
DGENRE=
TTITLE0=Blurry Eyes
TTITLE1=flower
TTITLE2=Lies and Truth
TTITLE3=?
TTITLE4=winter fall
TTITLE5=DIVE TO BLUE
TTITLE6=HONEY
TTITLE7=HEAVEN'S DRIVE
TTITLE8=Pieces
TTITLE9=Driver's High
TTITLE10=NEO UNIVERSE
TTITLE11=STAY AWAY
TTITLE12=Anemone
EXTD=
EXTT0=
EXTT1=
EXTT2=
EXTT3=
EXTT4=
EXTT5=
EXTT6=
EXTT7=
EXTT8=
EXTT9=
EXTT10=
EXTT11=
EXTT12=
PLAYORDER=
